<svg xmlns="http://www.w3.org/2000/svg" viewBox="0 0 64 64"><linearGradient id="Gb_3hQUYpsYgqvrnsaD7ja" x1="43.604" x2="43.604" y1="39" y2="52.675" gradientUnits="userSpaceOnUse" spreadMethod="reflect"><stop offset="0" stop-color="#6dc7ff"/><stop offset="1" stop-color="#e6abff"/></linearGradient><path fill="url(#Gb_3hQUYpsYgqvrnsaD7ja)" d="M46.279,48.34l1.38,2.41c-1.01,0.79-2.28,1.25-3.66,1.25c-3.31,0-6-2.69-6-6s2.69-6,6-6 c2.23,0,4.17,1.22,5.21,3.02c-1.18,0.1-2.33,0.78-2.9,1.8C45.699,45.93,45.609,47.28,46.279,48.34z"/><linearGradient id="Gb_3hQUYpsYgqvrnsaD7jb" x1="39" x2="39" y1="7.5" y2="56.527" gradientUnits="userSpaceOnUse" spreadMethod="reflect"><stop offset="0" stop-color="#1a6dff"/><stop offset="1" stop-color="#c822ff"/></linearGradient><path fill="url(#Gb_3hQUYpsYgqvrnsaD7jb)" d="M36 28H42V30H36z"/><linearGradient id="Gb_3hQUYpsYgqvrnsaD7jc" x1="39" x2="39" y1="7.5" y2="56.527" gradientUnits="userSpaceOnUse" spreadMethod="reflect"><stop offset="0" stop-color="#1a6dff"/><stop offset="1" stop-color="#c822ff"/></linearGradient><path fill="url(#Gb_3hQUYpsYgqvrnsaD7jc)" d="M36 16H42V18H36z"/><linearGradient id="Gb_3hQUYpsYgqvrnsaD7jd" x1="32" x2="32" y1="7.5" y2="56.526" gradientUnits="userSpaceOnUse" spreadMethod="reflect"><stop offset="0" stop-color="#1a6dff"/><stop offset="1" stop-color="#c822ff"/></linearGradient><path fill="url(#Gb_3hQUYpsYgqvrnsaD7jd)" d="M57.812,45.791C57.542,45.303,57.019,45,56.449,45h-2.501C53.511,41,50,37.066,46,36.202 v-2.386c1-0.414,2-1.514,2-2.816v-4c0-1.302-1-2.402-2-2.816v-2.369c1-0.414,2-1.514,2-2.816v-4C48,13.347,46.653,12,44.999,12H44 v-0.999C44,9.347,42.653,8,40.999,8H13c-1.654,0-3,1.347-3,3.001V12H9c-1.654,0-3,1.347-3,3.001v4c0,1.302,1,2.402,2,2.816v2.369 C7,24.599,6,25.698,6,27v4c0,1.302,1,2.402,2,2.816v2.369C7,36.598,6,37.698,6,39v4c0,1.654,1.346,3,3,3h1v1c0,1.654,1.346,3,3,3 h21.84c1.547,4,5.16,5.999,9.16,5.999v-2c-5,0-8-3.589-8-8s3.589-8,8-8c4.072,0,7.436,3,7.93,7h-2.381 c-0.57,0-1.093,0.303-1.363,0.791c-0.264,0.475-0.249,1.032,0.039,1.494l2.97,4.747c0.382,0.611,1.057,0.976,1.803,0.976 c0.748,0,1.424-0.365,1.807-0.978l2.971-4.746C58.061,46.823,58.076,46.265,57.812,45.791z M44,34v2H10v-2H44z M44,22v2H10v-2H44z M12,11.001C12,10.449,12.448,10,13,10h27.999C41.551,10,42,10.449,42,11.001V12H12V11.001z M46,19c0,0.552-0.448,1-1,1H9 c-0.552,0-1-0.448-1-1v-4c0-0.552,0.448-1,1-1h36c0.552,0,1,0.448,1,1V19z M46,31c0,0.552-0.448,1-1,1H9c-0.552,0-1-0.448-1-1v-4 c0-0.552,0.448-1,1-1h36c0.552,0,1,0.448,1,1V31z M13,48c-0.552,0-1-0.449-1-1v-1h22c0,1,0.07,2,0.202,2H13z M34.201,44H9 c-0.552,0-1-0.448-1-1v-4c0-0.552,0.449-1,1-1h29.025C36.097,40,34.699,42,34.201,44z M53.108,50.969 c-0.026,0.042-0.192,0.044-0.219,0.002L50.405,47h5.187L53.108,50.969z"/><linearGradient id="Gb_3hQUYpsYgqvrnsaD7je" x1="14" x2="14" y1="7.5" y2="56.527" gradientUnits="userSpaceOnUse" spreadMethod="reflect"><stop offset="0" stop-color="#1a6dff"/><stop offset="1" stop-color="#c822ff"/></linearGradient><path fill="url(#Gb_3hQUYpsYgqvrnsaD7je)" d="M12 28H16V30H12z"/><linearGradient id="Gb_3hQUYpsYgqvrnsaD7jf" x1="20" x2="20" y1="7.5" y2="56.527" gradientUnits="userSpaceOnUse" spreadMethod="reflect"><stop offset="0" stop-color="#1a6dff"/><stop offset="1" stop-color="#c822ff"/></linearGradient><path fill="url(#Gb_3hQUYpsYgqvrnsaD7jf)" d="M18 28H22V30H18z"/><linearGradient id="Gb_3hQUYpsYgqvrnsaD7jg" x1="14" x2="14" y1="7.5" y2="56.527" gradientUnits="userSpaceOnUse" spreadMethod="reflect"><stop offset="0" stop-color="#1a6dff"/><stop offset="1" stop-color="#c822ff"/></linearGradient><path fill="url(#Gb_3hQUYpsYgqvrnsaD7jg)" d="M12 40H16V42H12z"/><linearGradient id="Gb_3hQUYpsYgqvrnsaD7jh" x1="20" x2="20" y1="7.5" y2="56.527" gradientUnits="userSpaceOnUse" spreadMethod="reflect"><stop offset="0" stop-color="#1a6dff"/><stop offset="1" stop-color="#c822ff"/></linearGradient><path fill="url(#Gb_3hQUYpsYgqvrnsaD7jh)" d="M18 40H22V42H18z"/><linearGradient id="Gb_3hQUYpsYgqvrnsaD7ji" x1="14" x2="14" y1="7.5" y2="56.527" gradientUnits="userSpaceOnUse" spreadMethod="reflect"><stop offset="0" stop-color="#1a6dff"/><stop offset="1" stop-color="#c822ff"/></linearGradient><path fill="url(#Gb_3hQUYpsYgqvrnsaD7ji)" d="M12 16H16V18H12z"/><linearGradient id="Gb_3hQUYpsYgqvrnsaD7jj" x1="20" x2="20" y1="7.5" y2="56.527" gradientUnits="userSpaceOnUse" spreadMethod="reflect"><stop offset="0" stop-color="#1a6dff"/><stop offset="1" stop-color="#c822ff"/></linearGradient><path fill="url(#Gb_3hQUYpsYgqvrnsaD7jj)" d="M18 16H22V18H18z"/></svg>